HIERARCHY
ROOT hips
{
  OFFSET 0 11.86390953 0.3628582958
  CHANNELS 6 Xposition Yposition Zposition Yrotation Xrotation Zrotation
  JOINT spine
  {
    OFFSET 0 0.05383551117999996 0
    CHANNELS 3 Yrotation Xrotation Zrotation
    JOINT chest
    {
      OFFSET 0 0.6394558760401424 0
      CHANNELS 3 Yrotation Xrotation Zrotation
      JOINT neck
      {
        OFFSET 0 2.720089088562982 0
        CHANNELS 3 Yrotation Xrotation Zrotation
        JOINT head
        {
          OFFSET 0 0.37880844870545777 0
          CHANNELS 3 Yrotation Xrotation Zrotation
          JOINT rightEye
          {
            OFFSET -0.42867780714 0.7547055649100001 0.7381831347
            CHANNELS 3 Yrotation Xrotation Zrotation
            End Site
            {
              OFFSET -0.42867780714 0.7547055649100001 0.7381831347
            }
          }
          JOINT leftEye
          {
            OFFSET 0.428676479 0.7547055559999993 0.7381844503
            CHANNELS 3 Yrotation Xrotation Zrotation
            End Site
            {
              OFFSET 0.428676479 0.7547055559999993 0.7381844503
            }
          }
          JOINT jaw
          {
            OFFSET -0.18933892286100001 1.5626303011000007 1.137441874206
            CHANNELS 3 Yrotation Xrotation Zrotation
            End Site
            {
              OFFSET -0.18933892286100001 1.5626303011000007 1.137441874206
            }
          }
        }
      }
      JOINT rightShoulder
      {
        OFFSET -0.6795351508 2.0665205 0
        CHANNELS 3 Yrotation Xrotation Zrotation
        JOINT rightUpperArm
        {
          OFFSET -0.7287400483531672 0 0
          CHANNELS 3 Yrotation Xrotation Zrotation
          JOINT rightLowerArm
          {
            OFFSET -1.9872982039174532 0 0
            CHANNELS 3 Yrotation Xrotation Zrotation
            JOINT rightHand
            {
              OFFSET -2.6451847532219275 0 0
              CHANNELS 3 Yrotation Xrotation Zrotation
              JOINT rightLittleProximal
              {
                OFFSET -0.8008804099999995 -0.09592044000000044 -0.26183688629999996
                CHANNELS 3 Yrotation Xrotation Zrotation
                JOINT rightLittleIntermediate
                {
                  OFFSET -0.2473955153999997 -0.02541697026000067 0.002370178700999967
                  CHANNELS 3 Yrotation Xrotation Zrotation
                  JOINT rightLittleDistal
                  {
                    OFFSET -0.163687229200001 -0.015790700860001117 -0.0004274845300000635
                    CHANNELS 3 Yrotation Xrotation Zrotation
                    End Site
                    {
                      OFFSET -0.163687229200001 -0.015790700860001117 -0.0004274845300000635
                    }
                  }
                }
              }
              JOINT rightRingProximal
              {
                OFFSET -0.8393382799999985 -0.06223833561000025 -0.09213143500000005
                CHANNELS 3 Yrotation Xrotation Zrotation
                JOINT rightRingIntermediate
                {
                  OFFSET -0.3284497260000011 -0.03264224524000103 0.009408593183000052
                  CHANNELS 3 Yrotation Xrotation Zrotation
                  JOINT rightRingDistal
                  {
                    OFFSET -0.19447660429999902 -0.021730899850000318 0.003074347969000052
                    CHANNELS 3 Yrotation Xrotation Zrotation
                    End Site
                    {
                      OFFSET -0.19447660429999902 -0.021730899850000318 0.003074347969000052
                    }
                  }
                }
              }
              JOINT rightMiddleProximal
              {
                OFFSET -0.8473005199999989 -0.06735503500000095 0.10541820299999995
                CHANNELS 3 Yrotation Xrotation Zrotation
                JOINT rightMiddleIntermediate
                {
                  OFFSET -0.3450455799999995 -0.02481901642000084 0.019012570390000032
                  CHANNELS 3 Yrotation Xrotation Zrotation
                  JOINT rightMiddleDistal
                  {
                    OFFSET -0.23542332000000088 -0.025003910029999243 0.0075583457949999905
                    CHANNELS 3 Yrotation Xrotation Zrotation
                    End Site
                    {
                      OFFSET -0.23542332000000088 -0.025003910029999243 0.0075583457949999905
                    }
                  }
                }
              }
              JOINT rightIndexProximal
              {
                OFFSET -0.8008568281999987 -0.09897839600000169 0.29462796
                CHANNELS 3 Yrotation Xrotation Zrotation
                JOINT rightIndexIntermediate
                {
                  OFFSET -0.30524754480000016 -0.024634122809999992 0.02743375304999998
                  CHANNELS 3 Yrotation Xrotation Zrotation
                  JOINT rightIndexDistal
                  {
                    OFFSET -0.23067378950000017 -0.016876459159999913 0.008484125099999983
                    CHANNELS 3 Yrotation Xrotation Zrotation
                    End Site
                    {
                      OFFSET -0.23067378950000017 -0.016876459159999913 0.008484125099999983
                    }
                  }
                }
              }
              JOINT rightThumbProximal
              {
                OFFSET -0.25574064999999935 -0.12833189930000155 0.22385698609999993
                CHANNELS 3 Yrotation Xrotation Zrotation
                JOINT rightThumbIntermediate
                {
                  OFFSET -0.22791743260000086 -0.07103586192999978 0.27385039
                  CHANNELS 3 Yrotation Xrotation Zrotation
                  JOINT rightThumbDistal
                  {
                    OFFSET -0.13610267659999975 -0.03369390969999997 0.14246511509999996
                    CHANNELS 3 Yrotation Xrotation Zrotation
                    End Site
                    {
                      OFFSET -0.13610267659999975 -0.03369390969999997 0.14246511509999996
                    }
                  }
                }
              }
            }
          }
        }
      }
      JOINT leftShoulder
      {
        OFFSET 0.6795338396 2.0665205 0
        CHANNELS 3 Yrotation Xrotation Zrotation
        JOINT leftUpperArm
        {
          OFFSET 0.7287383950230443 0 0
          CHANNELS 3 Yrotation Xrotation Zrotation
          JOINT leftLowerArm
          {
            OFFSET 1.9872997282019604 0 0
            CHANNELS 3 Yrotation Xrotation Zrotation
            JOINT leftHand
            {
              OFFSET 2.6451820781302327 0 0
              CHANNELS 3 Yrotation Xrotation Zrotation
              JOINT leftLittleProximal
              {
                OFFSET 0.8008804099999995 -0.09592306899999814 -0.2618342639000001
                CHANNELS 3 Yrotation Xrotation Zrotation
                JOINT leftLittleIntermediate
                {
                  OFFSET 0.2473981400000007 -0.02542352681000093 0.0023609995859999455
                  CHANNELS 3 Yrotation Xrotation Zrotation
                  JOINT leftLittleDistal
                  {
                    OFFSET 0.1636846068000002 -0.015794634789999318 -0.00043272972159996703
                    CHANNELS 3 Yrotation Xrotation Zrotation
                    End Site
                    {
                      OFFSET 0.1636846068000002 -0.015794634789999318 -0.00043272972159996703
                    }
                  }
                }
              }
              JOINT leftRingProximal
              {
                OFFSET 0.8393409199999996 -0.062242267999998324 -0.0921281570000001
                CHANNELS 3 Yrotation Xrotation Zrotation
                JOINT leftRingIntermediate
                {
                  OFFSET 0.3284471036000003 -0.03264224524000103 0.009405970574000042
                  CHANNELS 3 Yrotation Xrotation Zrotation
                  JOINT leftRingDistal
                  {
                    OFFSET 0.1944779099999996 -0.021732211159998904 0.003073036670000001
                    CHANNELS 3 Yrotation Xrotation Zrotation
                    End Site
                    {
                      OFFSET 0.1944779099999996 -0.021732211159998904 0.003073036670000001
                    }
                  }
                }
              }
              JOINT leftMiddleProximal
              {
                OFFSET 0.8473005200000001 -0.06736028199999788 0.1054214809999999
                CHANNELS 3 Yrotation Xrotation Zrotation
                JOINT leftMiddleIntermediate
                {
                  OFFSET 0.3450455799999995 -0.024824261000000014 0.019013225990000007
                  CHANNELS 3 Yrotation Xrotation Zrotation
                  JOINT leftMiddleDistal
                  {
                    OFFSET 0.2354259489999998 -0.025005222000000327 0.0075590014499999705
                    CHANNELS 3 Yrotation Xrotation Zrotation
                    End Site
                    {
                      OFFSET 0.2354259489999998 -0.025005222000000327 0.0075590014499999705
                    }
                  }
                }
              }
              JOINT leftIndexProximal
              {
                OFFSET 0.8008594516999996 -0.09898495199999946 0.29463124239999994
                CHANNELS 3 Yrotation Xrotation Zrotation
                JOINT leftIndexIntermediate
                {
                  OFFSET 0.30524754480000016 -0.024632811499998963 0.02743047472
                  CHANNELS 3 Yrotation Xrotation Zrotation
                  JOINT leftIndexDistal
                  {
                    OFFSET 0.23067378950000017 -0.016876459159999913 0.008481502700000004
                    CHANNELS 3 Yrotation Xrotation Zrotation
                    End Site
                    {
                      OFFSET 0.23067378950000017 -0.016876459159999913 0.008481502700000004
                    }
                  }
                }
              }
              JOINT leftThumbProximal
              {
                OFFSET 0.25574326469999953 -0.12833321050000013 0.22385764169999997
                CHANNELS 3 Yrotation Xrotation Zrotation
                JOINT leftThumbIntermediate
                {
                  OFFSET 0.22804987480000094 -0.07138466829999968 0.273648441
                  CHANNELS 3 Yrotation Xrotation Zrotation
                  JOINT leftThumbDistal
                  {
                    OFFSET 0.13614857189999907 -0.033867001519998885 0.14238119169999996
                    CHANNELS 3 Yrotation Xrotation Zrotation
                    End Site
                    {
                      OFFSET 0.13614857189999907 -0.033867001519998885 0.14238119169999996
                    }
                  }
                }
              }
            }
          }
        }
      }
    }
  }
  JOINT rightUpperLeg
  {
    OFFSET -0.9749898906000001 -1.8495733739999998 0
    CHANNELS 3 Yrotation Xrotation Zrotation
    JOINT rightLowerLeg
    {
      OFFSET 0 -4.1566544686813165 0
      CHANNELS 3 Yrotation Xrotation Zrotation
      JOINT rightFoot
      {
        OFFSET 0.14539718599999998 -4.225553926 -0.3666210900000001
        CHANNELS 3 Yrotation Xrotation Zrotation
        JOINT rightToes
        {
          OFFSET 0.1706738473 -0.9584117400000015 1.0093348617
          CHANNELS 3 Yrotation Xrotation Zrotation
          End Site
          {
            OFFSET 0.1706738473 -0.9584117400000015 1.0093348617
          }
        }
      }
    }
  }
  JOINT leftUpperLeg
  {
    OFFSET 0.9749898906000001 -1.8495733739999998 0
    CHANNELS 3 Yrotation Xrotation Zrotation
    JOINT leftLowerLeg
    {
      OFFSET 0 -4.156653488267941 0
      CHANNELS 3 Yrotation Xrotation Zrotation
      JOINT leftFoot
      {
        OFFSET -0.14537357999999995 -4.225555399999999 -0.36661124279999996
        CHANNELS 3 Yrotation Xrotation Zrotation
        JOINT leftToes
        {
          OFFSET -0.17066467000000002 -0.9584157000000019 1.0093348617
          CHANNELS 3 Yrotation Xrotation Zrotation
          End Site
          {
            OFFSET -0.17066467000000002 -0.9584157000000019 1.0093348617
          }
        }
      }
    }
  }
}
MOTION
Frames: 4
Frame Time: 0.03333333333333333
0.05444261431694031 -0.3007629388134774 0.027574406936764717 1.5086643953462264 -0.8959904244667453 -5.40253548870071 -1.1587857190503623 1.296897073678948 3.0057431085627995 1.2659390493617664 1.339044302237786 11.808541548803193 -0.3326695126493811 1.0447752456480417 -2.1659459698280057 0.4395021483690806 1.5774493968213443 -8.134682740718572 0 0 0 0 0 0 0 0 0 3.4051766124784386 4.498124640779525 5.695700085345683 1.339413134917549 -1.6742163294053487 67.3013840049914 17.735262318121876 0.03517923170594539 -0.22547784118490274 -9.163839761199466 -11.056641256802136 12.02737640533657 -15.602426309720391 5.21447099620633 35.64272478725198 -3.4992824421571154 1.0430388087373936 45.60928875520518 -0.033234478253725004 -0.8197455423764637 22.123052142276222 -11.331863774844289 2.432258589826623 26.55424053639025 -3.4338326636862035 1.5389405303518486 40.160243673644565 0.24968358562398477 -0.18717566403707625 17.812859638934373 -8.623132781892355 0.898242528517926 15.807228335632084 -3.493244869085495 0.7745319298708547 33.39057653756201 -1.5231025068068722 0.18754130789621906 15.91338298253852 -4.588715976128968 0.33650152926401333 7.877040283529864 -2.5349329800105274 0.33653482701053905 20.58327090497835 -0.04944766443400413 -0.2147138890764805 13.84582137615385 -0.47308759603051326 18.64880388174724 -11.237349805110462 -31.73821194300995 0.8893872313356583 3.166387350992247 -7.698776868394432 1.6458770794338662 1.1069033241758388 -13.854267863390167 3.4969838562483386 -5.72526714957383 2.783562439586618 3.37036558224602 -83.518951766896 -14.505511137256976 0.023577578559053985 0.1854085561456343 4.035410483428472 -27.54271870119782 -11.331122301421312 15.842056552009304 5.385677732118037 -35.6255539020651 3.461911292661518 1.304686350442256 -45.60492038649102 2.5732447586393934 0.5107399754850697 -20.536093871576167 11.348365739585633 2.440554737387103 -26.553751297800076 3.4098183827830852 1.5344519086397768 -40.16008414504811 1.589807317351437 0.5033706064788818 -19.351039172384848 8.56428128782469 0.8816324396639362 -15.807294166821103 3.5864586434217176 0.7958180254431354 -33.39147303030313 1.3339308313619378 0.1540793682881334 -12.278666586406736 4.564969273353245 0.33320596006856296 -7.876700241505601 2.5749956831765246 0.34268101133443 -20.5836970174405 0.6785092001948542 0.02293736333095668 -10.17900066601642 0.3621115008716137 18.625579133447026 11.179717103286146 31.852920245455437 0.9234715263004363 -3.123027407569836 8.67154947952671 1.805813781749074 -0.2995684717299781 -4.832628602811915 -1.6073536957162462 10.75231076057298 -5.161688780713587 12.397324308169596 2.222711545921574 0.923600214715262 -9.850168334654592 -7.926916970140214 0.000002112882427153487 -0.5486497864369199 -0.000002542699591455695 11.672813535836069 -19.196247223072405 11.913053799732072 10.264324725071534 21.73452434337668 6.051639888603919 3.238900809701288 -1.4956773492413353 -8.908608465882484 -0.000011729605141967454 -0.4419603374668967 -0.0000016927088765795322
0.053402360528707504 -0.30152492459228597 0.028776826336979866 1.750033673692956 -0.7708006531159187 -5.29521018484947 -1.1691023331929071 1.1153933836611014 3.022869179787248 1.2596587930267917 1.2713281355524129 11.792292011751195 -0.30573072233895526 1.0554789893589767 -2.1658578417375463 0.7348628072558727 1.7769914510728217 -8.189850731319556 0 0 0 0 0 0 0 0 0 3.2532456562251206 4.572867955140467 5.607582800112491 1.4903091980719232 -1.4523814996882274 67.32295009042197 17.885261478595755 0.03577130383279187 -0.22728433271238666 -9.258604645182661 -11.288594565302109 11.928683532341212 -15.601786626581951 5.225197896926384 35.91765419478612 -3.518298907020624 1.058102655158665 45.88408601685303 -0.061214748523064764 -0.8226194261923214 22.398212152982385 -11.340999026279572 2.458272427787718 26.828153833602034 -3.4502890940493534 1.5564774624973983 40.435932802541316 0.22497425775193197 -0.18558295421347762 18.08787506306473 -8.640931344451955 0.9130619416244667 16.099727544257952 -3.514913506094803 0.7879598359565629 33.68324152433598 -1.5475784458039612 0.19462091838706583 16.20595506310949 -4.620000279279115 0.33911476237145416 8.207169251944187 -2.5621689698147545 0.3467918991306794 20.913626415921694 -0.07977969643859435 -0.21439969817172097 14.176370869955049 -0.44392098351278997 18.71004899168038 -11.276059121856001 -31.73821194300995 0.8893872313356583 3.166387350992247 -7.698776868394432 1.6458770794338662 1.1069033241758388 -13.68935628360098 3.5983100920775146 -5.516811036054231 2.60113626499393 3.4440512114673485 -83.66395143654995 -14.660770642488748 0.024072840687872857 0.18729488801489277 4.379351039084836 -27.536205818403925 -11.455873383602722 15.842059851959057 5.385661438490067 -35.62557862374699 3.4619051124959275 1.304666495057557 -45.6049228273208 2.573263037087577 0.5107429104485862 -20.536112258669576 11.348367415268397 2.440531023658846 -26.55377269893558 3.4098151856534904 1.5344447557204937 -40.16007671996249 1.589818732618562 0.5033852812797738 -19.35105593598158 8.564280443471153 0.8816168030829584 -15.807314815228672 3.586447351382423 0.795813062405087 -33.3914559846441 1.3339356325544849 0.15407411222511902 -12.27866575216029 4.564967145654119 0.33318517566491523 -7.876722698577031 2.5750018668958776 0.3426782632013545 -20.583704612386587 0.6785066390532635 0.022942429277334035 -10.178997304673649 0.3621034085238454 18.625550302709282 11.179692211739656 31.852920245455437 0.9234715263004363 -3.123027407569836 8.67154947952671 1.805813781749074 -0.2995684717299781 -4.844205286821405 -1.8210418446768375 10.650620880804775 -5.163506425491423 12.54737650330312 2.2568536997117565 0.6926761000484042 -9.952221048109896 -7.922908316588031 4.413375574406316e-7 -0.5581650573338242 0.0000017448375795041674 11.686756334813555 -19.30245203189216 11.734925467303785 10.010353607130368 21.68131014455434 5.950016146754813 3.2343223805676153 -1.4602774009798882 -8.850908634399522 0.00002461303822551443 -0.33413122626719677 -0.0000012670471333088927
0.05628224089741707 -0.3042324059765633 0.027293328195810318 2.4137094134047783 -0.4477313008826539 -5.03120792009809 -1.1449521923154882 0.8337689538034272 2.982844028539063 1.1943257265848697 1.0543417835607614 11.464479713256695 -0.2393392350681505 1.0655698678243533 -2.1655354736631582 1.442090878415225 2.1377428248864474 -8.177650741672583 0 0 0 0 0 0 0 0 0 2.8749620951503174 4.756531003436775 5.382545724352408 1.8117894085712511 -0.9474436695367383 67.36952263919481 18.351638369595857 0.03764702490835392 -0.23299356812170682 -10.024371856878242 -11.726417734813671 11.850367392002969 -15.601402693362122 5.3056731108562305 37.98149898430782 -3.6586387625995953 1.1740386358244448 47.946769384374605 -0.27173438849061443 -0.839921102484997 24.463910690576395 -11.404880728738117 2.653916031970491 28.885824335700903 -3.5710945941117753 1.6905977024257084 42.5042023397684 0.03986572192302416 -0.16989741596302574 20.152381214145333 -8.773034430617194 1.026669084432556 18.295375430255714 -3.6753131564804247 0.8923535461825813 35.880072230304215 -1.7301360921911433 0.25168292831163486 18.40215913249855 -4.853674401878242 0.3652488140433969 10.685393567338327 -2.7646093605834205 0.42871000162764583 23.393506250272114 -0.30733110735649566 -0.20647082225770616 16.657650704339105 -0.22666954101122208 19.170619678847782 -11.566565703459956 -31.73821194300995 0.8893872313356583 3.166387350992247 -7.698776868394432 1.6458770794338662 1.1069033241758388 -13.34873775295486 3.809783896348319 -5.132773948724842 1.6641747357979773 3.4369163858696363 -83.57604858883488 -15.282117016929526 0.02614116924309515 0.19508518083275928 6.252535425818 -27.0087136478189 -11.815868790900218 15.84205066567637 5.385672157982103 -35.62556626290613 3.4619093746791023 1.304677490243688 -45.60493731928967 2.5732611179576397 0.5107452050564274 -20.536107862418113 11.348368253109772 2.4405438418902845 -26.553768113246704 3.4098183827830852 1.534439631241022 -40.160091570133275 1.589809557730976 0.5033837337553144 -19.35104835975484 8.564273180010817 0.8816132274825392 -15.807295809989183 3.586450973767596 0.7958393184774106 -33.391468298963176 1.3339261368625401 0.15406081198445143 -12.278657517663449 4.56496289025583 0.33319390031188395 -7.876722698577031 2.5749971757984427 0.34267724932701626 -20.583704612386587 0.6785040245545536 0.02293741168923349 -10.178977373423406 0.3621101602141822 18.625562916156444 11.179694678204225 31.852920245455437 0.9234715263004363 -3.123027407569836 8.67154947952671 1.805813781749074 -0.2995684717299781 -4.894475417517061 -2.455847188490766 10.375378821959556 -5.189203544531764 13.043156652274886 2.3277230307429377 0.09688186345724634 -10.238150964227735 -7.874935959396615 -0.0000029178489235066116 -0.6033383548438961 -0.000001000535424377111 11.65909780383623 -19.62600547111419 11.241378388690064 9.45331894736291 21.58991555742825 5.744344683766574 3.224472182413965 -1.35757685526126 -8.67055120020038 0.000009402363969634063 -0.3298178894039919 0.000004903301289072774
0.06453527510166168 -0.3098133080761727 0.018001535907387733 3.311235202574855 -0.15452134449513355 -4.716261932215337 -1.0551475162968023 0.8435011482470682 2.833668650888263 1.1098994462708547 0.7725614541568306 10.794906004312082 -0.13771843788914623 1.0441813473983304 -2.15824513282066 2.5241304744371433 2.2442655853580527 -7.960418918204965 0 0 0 0 0 0 0 0 0 2.591167196441622 4.891870435426171 5.121089840914961 1.9344170969870083 -0.47341156099349685 67.35570893548386 19.15545459194102 0.04098723165828733 -0.24286961617834157 -11.511472738106173 -11.984172787122008 11.917003201838751 -15.620933995136165 5.454426598298906 41.76262138814369 -3.9045854032558838 1.399194996323299 51.725339926971444 -0.6584713451412191 -0.8519019730768824 28.24861788810044 -11.504625624972302 3.014384917563647 32.65625591972326 -3.7795760385292176 1.9472660554957948 46.29318286225166 -0.2973130918485313 -0.12388845560132536 23.93458122896227 -9.00777556375846 1.2457258253650214 22.31748002100174 -3.958343672270851 1.0992156207880523 39.90429506976993 -2.0583982733245607 0.37424756221822564 22.425413091534562 -5.275066203751763 0.4416318116096443 15.22570281172358 -3.1255563081310336 0.6012331528865339 27.936310653589125 -0.7224937416151966 -0.16642833193310852 21.203482080801823 0.1638746016674235 20.017077184359447 -12.098097565767468 -31.73821194300995 0.8893872313356583 3.166387350992247 -7.698776868394432 1.6458770794338662 1.1069033241758388 -13.089022784356983 3.9819910441936686 -4.8220416127426295 0.29489207178753946 3.1291721783239907 -83.00952434343354 -16.312961240336733 0.029771808756042833 0.2078573919159645 9.108184951426733 -26.290667019581804 -11.511542908653556 15.842063151908699 5.385670871643049 -35.62556147660443 3.4619083091333125 1.304686563941017 -45.60492765797709 2.5732432659828226 0.5107312239575009 -20.536093871576167 11.348363226061448 2.440546619173779 -26.5537711701218 3.409814333085595 1.5344481720401484 -40.16007671996249 1.5898111580020726 0.5033808521580465 -19.351049970898266 8.56427706605698 0.8816097586164643 -15.807302382661229 3.5864469252905447 0.7958272577612412 -33.3914559846441 1.3339408605196814 0.15408295681846626 -12.278676489396936 4.564963315795661 0.33319312656643385 -7.87668332684883 2.5750008007373726 0.34267428774671277 -20.58372020015894 0.6785059987678654 0.02293840220014465 -10.17900318702345 0.3621089160398441 18.62556651999866 11.179702447852241 31.852920245455437 0.9234715263004363 -3.123027407569836 8.67154947952671 1.805813781749074 -0.2995684717299781 -4.941215973494516 -3.2883222491083806 10.05361431094277 -5.227854664443158 13.875946972474715 2.3319560657040426 -0.733954524630346 -10.67076908503837 -7.736440488147634 0.000004322610490786057 -0.6731131236854162 0.0000020859588619714873 11.552045430727315 -20.015944991157237 10.581967528782783 8.828625485383297 21.579769881304063 5.621668734600613 3.2113671915363464 -1.2491387405910082 -8.461460373828833 -0.000005872393255913267 -0.3271108488535145 0.000001682868025702818
